<?xml version="1.0" encoding="iso-8859-1"?>
<!-- Generator: Adobe Illustrator 29.8.2, SVG Export Plug-In . SVG Version: 9.03 Build 0)  -->
<svg version="1.1" id="Layer_1" xmlns="http://www.w3.org/2000/svg" xmlns:xlink="http://www.w3.org/1999/xlink" x="0px" y="0px"
	 viewBox="0 0 200 200" style="enable-background:new 0 0 200 200;" xml:space="preserve">
<g>
	<path style="fill:#FF6D00;" d="M100,134.963c10.028,0,18.491-7.163,18.491-16.259v-8.927v-11.57V83.506
		c0.012-25.259,20.492-45.733,45.754-45.733v-0.001h2.232c9.095,0,16.259-8.46,16.259-18.489s-7.163-18.491-16.259-18.491h-2.232
		V0.792c-0.014,0-0.028,0.001-0.042,0.001c-5.813,0.003-11.48,0.619-16.953,1.763c-23.73,4.082-43.529,16.584-55.009,35.217
		C85.397,48.88,81.509,62.164,81.509,77.144v21.063v11.57v8.927C81.509,127.799,89.972,134.963,100,134.963z"/>
	<path style="fill:#FF6D00;" d="M164.245,65.005c-10.028,0-18.491,7.163-18.491,16.259v7.833v23.362v4.035
		c-0.012,25.26-20.492,45.733-45.754,45.733c-25.27,0-45.755-20.485-45.755-45.755V47.536c0,0,0,0-0.001,0V17.051
		c0-9.095-8.46-16.259-18.489-16.259S17.265,7.956,17.265,17.051v99.386c0,0.012-0.001,0.023-0.001,0.035
		c0,0.012,0.001,0.023,0.001,0.035v6.349c0,41.044,28.928,69.372,67.875,75.01c4.821,0.875,9.786,1.341,14.86,1.341
		c5.827,0,11.509-0.616,16.995-1.763c37.874-6.514,65.74-34.478,65.74-74.588v-10.397V89.098v-7.833
		C182.735,72.169,174.273,65.005,164.245,65.005z"/>
</g>
</svg>
