<?xml version="1.0" encoding="iso-8859-1"?>
<!-- Generator: Adobe Illustrator 29.8.2, SVG Export Plug-In . SVG Version: 9.03 Build 0)  -->
<svg version="1.1" id="Layer_1" xmlns="http://www.w3.org/2000/svg" xmlns:xlink="http://www.w3.org/1999/xlink" x="0px" y="0px"
	 viewBox="0 0 200 200" style="enable-background:new 0 0 200 200;" xml:space="preserve">
<g>
	<path style="fill:#F46428;" d="M155.013,55.84c-8.723,0-16.084,7.087-16.084,16.082v18.83v24.79v9.129
		c0,27.804-17.447,43.345-40.073,43.345c-22.081,0-39.528-15.541-39.528-43.345V18.082C59.328,9.087,51.969,2,43.246,2
		S27.162,9.087,27.162,18.082v104.68c0,45.524,31.621,75.238,71.694,75.238c40.346,0,72.24-29.714,72.24-75.238v-7.22v-24.79v-18.83
		C171.095,62.927,163.736,55.84,155.013,55.84z"/>
	<path style="fill:#F46428;" d="M157.847,2h-2.563c-14.058,0-27.083,3.616-38.097,10.243C96.592,24.634,83.045,47.575,83.045,77.238
		v19.193v27.053v4.67c0,8.995,7.359,16.082,16.082,16.082s16.084-7.087,16.084-16.082v-4.67V96.431V75.328
		c0-27.804,17.447-43.345,40.073-43.345h2.563c8.385,0,14.991-6.86,14.991-14.991S166.232,2,157.847,2z"/>
</g>
</svg>
